<svg id="wave" style="transform:rotate(0deg);' transition: 0.3s" viewBox="0 0 1440 130" version="1.1" xmlns="http://www.w3.org/2000/svg"><defs><linearGradient id="sw-gradient-0" x1="0" x2="0" y1="1" y2="0"><stop stop-color="rgba(255, 255, 255, 1)" offset="0%"></stop><stop stop-color="rgba(255, 255, 255, 1)" offset="100%"></stop></linearGradient></defs><path style="transform:translate(0, 0px); opacity:1" fill="url(#sw-gradient-0)" d="M0,104L80,97.5C160,91,320,78,480,75.8C640,74,800,82,960,75.8C1120,69,1280,48,1440,32.5C1600,17,1760,9,1920,10.8C2080,13,2240,26,2400,43.3C2560,61,2720,82,2880,82.3C3040,82,3200,61,3360,49.8C3520,39,3680,39,3840,41.2C4000,43,4160,48,4320,43.3C4480,39,4640,26,4800,30.3C4960,35,5120,56,5280,58.5C5440,61,5600,43,5760,47.7C5920,52,6080,78,6240,73.7C6400,69,6560,35,6720,36.8C6880,39,7040,78,7200,80.2C7360,82,7520,48,7680,34.7C7840,22,8000,30,8160,32.5C8320,35,8480,30,8640,41.2C8800,52,8960,78,9120,78C9280,78,9440,52,9600,43.3C9760,35,9920,43,10080,39C10240,35,10400,17,10560,28.2C10720,39,10880,78,11040,93.2C11200,108,11360,100,11440,95.3L11520,91L11520,130L11440,130C11360,130,11200,130,11040,130C10880,130,10720,130,10560,130C10400,130,10240,130,10080,130C9920,130,9760,130,9600,130C9440,130,9280,130,9120,130C8960,130,8800,130,8640,130C8480,130,8320,130,8160,130C8000,130,7840,130,7680,130C7520,130,7360,130,7200,130C7040,130,6880,130,6720,130C6560,130,6400,130,6240,130C6080,130,5920,130,5760,130C5600,130,5440,130,5280,130C5120,130,4960,130,4800,130C4640,130,4480,130,4320,130C4160,130,4000,130,3840,130C3680,130,3520,130,3360,130C3200,130,3040,130,2880,130C2720,130,2560,130,2400,130C2240,130,2080,130,1920,130C1760,130,1600,130,1440,130C1280,130,1120,130,960,130C800,130,640,130,480,130C320,130,160,130,80,130L0,130Z"></path></svg>